<svg width="87" height="56" viewBox="0 0 87 56" fill="none" xmlns="http://www.w3.org/2000/svg">
<path fill-rule="evenodd" clip-rule="evenodd" d="M86.5612 55.4926L82.1285 52.5983C81.1969 50.0935 79.2117 46.8111 75.1301 46.3848C68.4294 45.6837 65.7495 48.4861 65.7495 48.4861C65.7495 48.4861 63.5294 43.6976 57.0369 42.8829C51.4521 42.1838 47.6548 46.3848 47.6548 46.3848C47.6548 46.3848 46.7253 44.2262 44.6155 42.717L44.5062 20.4983C44.4706 16.9953 45.9851 13.6974 48.5651 11.501C49.6519 11.9583 53.1066 13.3187 56.1469 13.5827C59.8102 13.903 64.0822 11.8818 66.3206 11.7759C68.5584 11.669 74.7637 12.3081 74.7637 12.3081C74.7637 12.3081 66.8294 -0.661284 56.1469 1.03907C45.6469 2.711 47.4313 10.633 47.4936 10.8996C46.0953 12.0389 44.9977 13.4907 44.2669 15.1322C44.1334 13.546 42.9225 11.2443 42.9225 11.2443C42.9225 11.2443 42.1353 13.1378 41.8762 14.4631C41.1336 13.0412 40.0967 11.7935 38.8285 10.7932C39.0465 9.17553 39.1212 3.55368 30.0012 2.10237C19.3197 0.402533 11.3843 13.3714 11.3843 13.3714C11.3843 13.3714 17.5896 12.7323 19.8285 12.8392C22.0668 12.9456 26.3403 14.9648 30.0012 14.6465C33.0311 14.3825 36.959 12.4502 38.2272 11.7873C40.6045 13.9795 41.9825 17.1472 41.9479 20.4983L41.8446 41.4713C40.8082 41.2409 39.6275 41.1996 38.2737 41.4822C31.5715 42.8829 31.5715 47.7855 31.5715 47.7855C31.5715 47.7855 27.4983 42.6969 19.8749 44.4287C13.6296 45.8459 13.4778 49.8863 13.4778 49.8863C13.4778 49.8863 10.1003 48.9676 6.10713 50.5858C5.17412 50.964 4.48783 52.0785 4.01959 53.149L-0.411621 55.4926H86.5612ZM43.2271 19.9465C43.2271 19.6881 43.1989 19.4345 43.1821 19.1803C43.2093 19.111 43.2449 19.0165 43.2889 18.9013C43.2582 19.2474 43.2271 19.5941 43.2271 19.9465Z" fill="#1E5454"/>
</svg>
