<svg width="104" height="64" viewBox="0 0 104 64" fill="none" xmlns="http://www.w3.org/2000/svg">
<path d="M70.6903 33.8014L82.1336 29.83C82.6752 29.6422 82.9697 29.0256 82.7918 28.4545C82.6138 27.8829 82.0308 27.5749 81.4898 27.7627L70.0464 31.734C69.5054 31.9219 69.2103 32.5355 69.3883 33.1066C69.5662 33.6777 70.1492 33.9892 70.6903 33.8014Z" fill="#1E5454"/>
<path d="M68.4833 40.2869L87.5563 33.6672C88.0979 33.4794 88.393 32.8628 88.2151 32.2917C88.0366 31.7201 87.453 31.4092 86.9119 31.597L67.8384 38.2167C67.2974 38.4045 67.0028 39.0205 67.1808 39.5922C67.3587 40.1632 67.9423 40.4747 68.4833 40.2869Z" fill="#1E5454"/>
<path fill-rule="evenodd" clip-rule="evenodd" d="M55.8426 39.9171C58.1824 47.4852 61.5159 53.5706 64.7587 56.1962C65.1594 56.5211 65.2782 57.1038 65.04 57.5752C64.8372 57.9712 64.6582 58.3971 64.5079 58.8381C63.6723 61.284 64.0326 63.1833 64.4996 63.3595C64.5814 63.391 64.6946 63.3642 64.7748 63.3362C65.4921 63.0871 66.5659 61.8183 67.2312 59.8764C67.3572 59.5101 67.4617 59.135 67.5423 58.7622C67.6661 58.1958 68.1889 57.8295 68.7322 57.9357C72.946 58.7418 79.0713 57.9701 85.116 55.8718C90.7556 53.9147 95.3839 51.1019 97.8111 48.1532C98.1609 47.7308 98.755 47.6562 99.1882 47.9793C99.2584 48.033 99.3314 48.0861 99.4038 48.1362C101.029 49.2837 102.607 49.6319 103.325 49.3828C103.405 49.3548 103.511 49.3052 103.559 49.2294C103.836 48.7948 103.058 47.0402 101.011 45.5947C100.79 45.4395 100.557 45.2913 100.321 45.1542C99.9199 44.9238 99.7132 44.4408 99.8094 43.9683C100.716 39.5793 99.7956 32.4498 97.3447 24.8951C94.9413 17.4751 91.5536 11.0228 88.2881 7.63132C87.972 7.30174 87.8913 6.79541 88.0864 6.37424C88.2367 6.05516 88.3705 5.72266 88.4854 5.38607C89.3216 2.94249 88.9612 1.04257 88.4932 0.864657C88.4119 0.833157 88.2986 0.859991 88.2185 0.887991C87.5006 1.13766 86.4258 2.40582 85.7632 4.34832L85.7328 4.44107L85.719 4.48307C85.5388 5.02966 84.9895 5.33299 84.4623 5.17607C80.8845 4.10741 75.5041 4.64932 69.6954 6.66532C63.2854 8.89016 57.7215 12.4607 55.1756 15.9823C54.8401 16.4472 54.2167 16.5487 53.7636 16.2139C53.7067 16.1713 53.6492 16.1299 53.5906 16.0885C51.9637 14.9411 50.3859 14.5928 49.6686 14.8413C49.5879 14.8693 49.4818 14.9189 49.4337 14.9947C49.1574 15.4311 49.9355 17.1863 51.9825 18.6295C52.2753 18.836 52.581 19.0256 52.891 19.1936C53.2933 19.4112 53.5149 19.8802 53.4364 20.3509C52.6495 25.0759 53.5713 32.5741 55.8426 39.9171ZM92.791 35.4295L65.2605 44.9845C64.7195 45.1723 64.137 44.8637 63.9591 44.2927L59.375 29.5757C59.1971 29.0047 59.4916 28.3892 60.0326 28.2014L87.5631 18.6464C88.1041 18.4586 88.6877 18.7695 88.8656 19.3406L93.4497 34.0569C93.6282 34.628 93.332 35.2417 92.791 35.4295Z" fill="#1E5454"/>
<path fill-rule="evenodd" clip-rule="evenodd" d="M13.5938 62.6058L13.1025 44.1824L6.0835 47.0506L0.619629 62.6058H13.5938Z" fill="#1E5454"/>
<path fill-rule="evenodd" clip-rule="evenodd" d="M15.8398 42.9003V55.1036H42.3142V42.9393L39.9661 41.9389L39.0327 41.4478C38.2507 47.7087 29.7446 52.4033 29.3655 52.6116L28.9234 52.8502L28.4807 52.6116C28.1055 52.4063 19.7657 47.8038 18.8384 41.6379L17.632 42.1384L15.8398 42.9003Z" fill="#1E5454"/>
<path fill-rule="evenodd" clip-rule="evenodd" d="M29.0325 42.7813C33.2414 42.7813 36.4234 40.8014 38.4908 36.8925C39.9641 34.1088 40.3322 31.3135 40.3781 30.9203V23.0413H17.687V30.8848C17.7815 31.3853 18.3579 34.1806 19.9108 36.9193C22.1164 40.8108 25.1851 42.7813 29.0325 42.7813Z" fill="#1E5454"/>
<path fill-rule="evenodd" clip-rule="evenodd" d="M10.5795 21.0002H47.4853C48.3535 21.0002 49.0023 20.5213 49.0023 20.0925C49.0023 19.6644 48.3535 19.1849 47.4853 19.1849H42.6625L42.563 18.2819C41.7584 10.971 39.6711 3.59412 36.8223 3.59412C36.1591 3.59412 35.3993 3.97037 34.5631 4.71237C33.2954 5.83703 30.8412 7.07078 29.0877 7.10287L29.0142 7.10345C27.222 7.10345 24.5848 5.87262 23.2463 4.72228C22.408 4.00245 21.6459 3.63787 20.98 3.63787C18.0914 3.63787 16.0113 10.9908 15.2315 18.2789L15.1343 19.1849H10.5795C9.71129 19.1849 9.0625 19.6644 9.0625 20.0925C9.0625 20.5213 9.71129 21.0002 10.5795 21.0002Z" fill="#1E5454"/>
<path fill-rule="evenodd" clip-rule="evenodd" d="M24.912 47.6253C26.5246 49.0451 28.1604 50.084 28.923 50.5396C29.6856 50.084 31.3209 49.0451 32.9334 47.6253C34.514 46.2317 36.3421 44.2285 36.9505 42.0194C34.7942 43.8651 32.1205 44.8235 29.0324 44.8235C25.826 44.8235 23.0192 43.6207 20.749 41.3165C21.1215 43.7998 23.1657 46.0859 24.912 47.6253Z" fill="#1E5454"/>
<path fill-rule="evenodd" clip-rule="evenodd" d="M44.4707 62.6058L44.9625 44.1824L51.9815 47.0506L57.4454 62.6058H44.4707Z" fill="#1E5454"/>
<path d="M42.3142 56.6249H15.8398V62.6058H42.3142V56.6249Z" fill="#1E5454"/>
</svg>
