<?xml version="1.0" encoding="UTF-8"?>
<svg xmlns="http://www.w3.org/2000/svg" xml:space="preserve" width="20mm" height="20mm" version="1.1" style="shape-rendering:geometricPrecision; text-rendering:geometricPrecision; image-rendering:optimizeQuality; fill-rule:evenodd; clip-rule:evenodd"
viewBox="0 0 2000 2000"
 xmlns:xlink="http://www.w3.org/1999/xlink"
 xmlns:xodm="http://www.corel.com/coreldraw/odm/2003">
 <defs>
<style type="text/css">
   <![CDATA[
    .fil0 {fill:#1E5454;fill-rule:nonzero}
    .fil1 {fill:#1E5454;fill-rule:nonzero}
   ]]>
</style>
 </defs>
 <g id="Layer_x0020_1">
  <metadata id="CorelCorpID_0Corel-Layer"/>
  <path class="fil0" d="M-18416.03 8963.88c-7.83,0 -14.25,-2.83 -19.37,-8.48 -5.08,-5.7 -7.62,-13.71 -7.62,-24.2l0 -5.68c-7.69,8.78 -15.27,15.99 -22.72,21.46 -7.48,5.57 -15.55,9.73 -24.3,12.58 -8.72,2.9 -18.24,4.32 -28.58,4.32 -13.72,0 -26.35,-2.9 -38.03,-8.69 -11.64,-5.78 -21.73,-14.11 -30.27,-24.83 -8.53,-10.72 -14.95,-23.36 -19.33,-37.92 -4.41,-14.5 -6.63,-30.21 -6.63,-47.1 0,-35.74 8.75,-63.61 26.18,-83.57 17.46,-19.94 40.42,-29.91 68.89,-29.91 16.48,0 30.38,2.81 41.67,8.46 11.32,5.65 22.36,14.36 33.12,26.03l0 -84.35c0,-11.74 2.29,-20.56 7.02,-26.6 4.66,-5.99 11.29,-9 19.97,-9 8.64,0 15.35,2.76 20,8.26 4.69,5.54 7.02,13.66 7.02,24.41l0 252.13c0,10.9 -2.47,19.06 -7.55,24.49 -5.01,5.47 -11.46,8.19 -19.47,8.19zm-85.44 -189.73c-10.45,0 -19.79,2.96 -28.08,8.89 -8.19,5.92 -14.61,14.42 -19.13,25.5 -4.55,11.15 -6.8,24.02 -6.8,38.67 0,15.52 2.4,28.72 7.23,39.58 4.83,10.9 11.39,19.08 19.79,24.62 8.36,5.5 17.53,8.3 27.41,8.3 10.05,0 19.23,-2.62 27.52,-7.91 8.36,-5.18 14.95,-13.26 19.93,-24.02 4.94,-10.83 7.44,-24.38 7.44,-40.57 0,-15.21 -2.5,-28.33 -7.44,-39.26 -4.98,-10.98 -11.64,-19.33 -20.15,-25.16 -8.43,-5.75 -17.7,-8.64 -27.72,-8.64z"/>
  <path class="fil1" d="M1561.88 1695.36c-154.48,128.05 -352.78,204.97 -569.1,204.97 -185.6,0 -357.95,-56.64 -500.76,-153.6 -236.48,-160.58 -391.84,-431.67 -391.84,-739.05 0,-492.97 399.65,-892.59 892.6,-892.59 493.03,0 892.65,399.62 892.65,892.59 0,276.72 -125.93,524 -323.55,687.68zm-569.1 -1687.66c-552.29,0 -999.99,447.69 -999.99,999.98 0,344.37 174.04,648.09 438.98,827.92 159.98,108.68 353.11,172.1 561.01,172.1 242.32,0 464.5,-86.2 637.58,-229.6 221.43,-183.38 362.43,-460.47 362.43,-770.42 0,-552.29 -447.69,-999.98 -1000.01,-999.98z"/>
  <path class="fil1" d="M720.78 1080.2c0,150.23 121.85,272.03 272.05,272.03 150.27,0 272.05,-121.8 272.05,-272.03l0 -89.67c0,-150.25 -121.78,-272.03 -272.05,-272.03 -150.2,0 -272.05,121.78 -272.05,272.03l0 89.67z"/>
  <path class="fil1" d="M1511.53 1670.67c-147.45,115.52 -330.78,178.89 -518.8,178.89 -169.4,0 -332.7,-50.11 -472.27,-144.8 -15.82,-10.76 -31.19,-21.98 -46.16,-33.67 42.41,-159.77 151.56,-290.79 294.35,-358.83 58.11,56.12 137.13,90.71 224.08,90.71 87.08,0 166.17,-34.62 224.25,-90.86 142.84,67.98 252,198.91 294.55,358.56z"/>
  <path class="fil1" d="M1363.88 1016.58c0,114.47 92.8,207.27 207.27,207.27 114.47,0 207.24,-92.8 207.24,-207.27l0 -68.28c0,-114.47 -92.77,-207.27 -207.24,-207.27 -114.47,0 -207.27,92.8 -207.27,207.27l0 68.28z"/>
  <path class="fil1" d="M1802.46 1238.97c-43.17,151.58 -128.48,288.98 -248.37,396.24 -44.82,-146.37 -141.88,-270.23 -272.23,-346.08 34.05,-35.32 74.16,-64.42 118.53,-85.56 44.25,42.73 104.47,69.09 170.71,69.09 66.32,0 126.54,-26.44 170.86,-69.27 21.22,10.08 41.42,22.02 60.5,35.58z"/>
  <path class="fil1" d="M621.76 1016.58c0,114.47 -92.78,207.27 -207.25,207.27 -114.47,0 -207.27,-92.8 -207.27,-207.27l0 -68.28c0,-114.47 92.8,-207.27 207.27,-207.27 114.47,0 207.25,92.8 207.25,207.27l0 68.28z"/>
  <path class="fil1" d="M183.15 1238.97c43.14,151.58 128.48,288.98 248.39,396.24 44.81,-146.37 141.86,-270.23 272.23,-346.08 -34.06,-35.32 -74.18,-64.42 -118.55,-85.56 -44.27,42.73 -104.44,69.09 -170.71,69.09 -66.32,0 -126.56,-26.44 -170.86,-69.27 -21.21,10.08 -41.45,22.02 -60.5,35.58z"/>
 </g>
</svg>
