<svg width="58" height="70" viewBox="0 0 58 70" fill="none" xmlns="http://www.w3.org/2000/svg">
  <path d="M32.5819 39.0667C31.442 39.4254 30.3501 39.428 29.6154 38.8456C29.5795 38.8176 29.5473 38.784 29.5126 38.7549L26.6473 41.8601L26.6341 41.8469L26.9073 49.7416H25.2115L25.4632 41.8148L22.6395 38.7549C22.6047 38.784 22.5726 38.8176 22.5367 38.8456C21.8019 39.428 20.71 39.4254 19.5701 39.0667C16.582 38.1256 14.7006 35.1587 14.8393 32.0281L14.9088 30.4815L16.4554 30.4135C19.5849 30.2748 22.5514 32.1547 23.4925 35.1428C23.8527 36.2827 23.8538 37.3761 23.2726 38.1109C23.2446 38.1456 23.2113 38.1774 23.1818 38.2121L25.5085 40.3601L25.7179 33.8003C25.6461 33.7946 25.5728 33.7961 25.5021 33.7867C24.5712 33.679 23.8006 32.9053 23.2472 31.8455C21.8008 29.0668 22.5688 25.6388 24.8792 23.5241L26.0222 22.4787L27.1647 23.5241C29.4755 25.6388 30.2435 29.0668 28.7967 31.8455C28.2445 32.9053 27.4727 33.679 26.5418 33.7867C26.4806 33.7946 26.4167 33.7935 26.3555 33.7988L26.5834 40.4149L28.9702 38.2121C28.9407 38.1774 28.9075 38.1456 28.8795 38.1109C28.2982 37.3761 28.2993 36.2827 28.6595 35.1428C29.6006 32.1547 32.5672 30.2748 35.6966 30.4135L37.2432 30.4815L37.3127 32.0281C37.4515 35.1587 35.57 38.1256 32.5819 39.0667ZM8.00326 25.3028C7.12604 29.9629 5.3353 37.2548 5.3353 37.2548C5.3353 37.2548 5.16862 26.5882 6.31533 21.4549C6.93404 18.6867 10.6701 12.8723 10.6701 12.8723H14.4515C14.4515 12.8723 8.88087 20.6441 8.00326 25.3028ZM52.2445 10.5347L50.2712 0.758911L26.0755 1.42827L6.16717 0.758911L5.74084 10.5347C1.00207 21.4216 -1.6659 42.7653 1.45259 66.1735C9.66059 68.3973 17.8686 69.5093 26.0755 69.5093C34.2835 69.5093 42.4915 68.3973 50.6995 66.1735L55.7141 64.3347L57.2845 51.676C57.4981 19.1002 52.2445 10.5347 52.2445 10.5347Z" fill="#1E5454"/>
</svg>
