<svg width="57" height="64" viewBox="0 0 57 64" fill="none" xmlns="http://www.w3.org/2000/svg">
<path d="M19.8628 29.8735C14.792 29.8735 10.6812 25.7772 10.6812 20.7241C10.6812 15.6712 14.792 11.5746 19.8628 11.5746C24.9334 11.5746 29.0431 15.6712 29.0431 20.7241C29.0431 25.7772 24.9334 29.8735 19.8628 29.8735ZM39.8715 23.3293V17.0096L34.4406 16.7623C33.998 15.1402 33.3044 13.6216 32.38 12.2658L35.8603 8.46637L31.375 3.99747L27.3619 7.64722C25.9392 6.83566 24.3767 6.24464 22.7117 5.92883L22.4771 0.783936H16.1341L15.8861 6.19593C14.2584 6.63811 12.7342 7.32925 11.3739 8.24961L7.5618 4.78224L3.07675 9.25196L6.73979 13.2511C5.92457 14.6677 5.33258 16.2257 5.01485 17.884L-0.147461 18.1189V24.4396L5.28315 24.6869C5.72634 26.3079 6.42017 27.8268 7.34428 29.1823L3.86453 32.982L8.34959 37.4507L12.3627 33.8012C13.7843 34.6136 15.3476 35.2035 17.0126 35.5204L17.2475 40.6642H23.5902L23.8384 35.2522C25.4662 34.8111 26.9901 34.1189 28.3506 33.1988L32.1625 36.6662L36.6478 32.1972L32.9845 28.1981C33.7997 26.7804 34.3917 25.2225 34.7097 23.5641L39.8715 23.3293Z" fill="#1E5454"/>
<path d="M41.3 56.1728C37.3627 56.1728 34.1706 52.9917 34.1706 49.067C34.1706 45.1434 37.3627 41.9626 41.3 41.9626C45.2374 41.9626 48.4293 45.1434 48.4293 49.067C48.4293 52.9917 45.2374 56.1728 41.3 56.1728ZM56.8397 51.0909V46.182L52.6216 45.9912C52.2775 44.731 51.7393 43.5511 51.0218 42.499L53.7233 39.549L50.2408 36.0778L47.1247 38.9122C46.02 38.2814 44.8061 37.823 43.5138 37.5779L43.331 33.5825H38.405L38.2124 37.7849C36.9489 38.1286 35.7646 38.6652 34.7091 39.3801L31.7477 36.687L28.2655 40.1581L31.1098 43.2637C30.4766 44.3646 30.0168 45.5739 29.7694 46.8618L25.7612 47.0442V51.9531L29.9783 52.1439C30.3231 53.4041 30.8616 54.584 31.5791 55.6361L28.8765 58.5861L32.3598 62.057L35.4762 59.2228C36.5809 59.8536 37.7948 60.3118 39.0871 60.5572L39.2699 64.5523H44.1959L44.3877 60.3491C45.652 60.0063 46.8352 59.4699 47.891 58.7549L50.8521 61.447L54.3354 57.9769L51.4911 54.8714C52.1235 53.7708 52.5833 52.5612 52.8304 51.2733L56.8397 51.0909Z" fill="#1E5454"/>
</svg>
