<svg width="67" height="73" viewBox="0 0 67 73" fill="none" xmlns="http://www.w3.org/2000/svg">
<path d="M54.2882 22.0382C54.2882 22.0382 40.1414 24.8147 38.4158 28.2746C36.6914 31.7358 36.3896 35.2863 36.3896 35.2863C36.3896 35.2863 42.0392 34.4661 44.5406 32.4635C47.0426 30.4609 54.2882 22.7659 54.2882 22.7659V22.0382Z" fill="#1E5454"/>
<path d="M56.2847 16.1152C56.1335 16.2906 55.7885 16.2406 55.3829 16.0253C55.3829 16.0253 54.1715 14.9651 53.8367 14.542C53.5361 14.1626 53.5061 13.7567 53.6615 13.5774C53.8109 13.4045 54.1481 13.4508 54.5495 13.6591C54.8267 13.8061 55.1351 14.0322 55.4309 14.3184C55.7093 14.587 55.9361 14.8713 56.0975 15.1354C56.3549 15.5617 56.4401 15.9353 56.2847 16.1152Z" fill="#1E5454"/>
<path d="M53.7084 15.0392L53.6787 15.0747L53.644 15.1165C53.6507 15.1 53.6598 15.0829 53.672 15.0702C53.6823 15.0582 53.6957 15.0487 53.7084 15.0392Z" fill="#1E5454"/>
<path d="M53.7084 15.0392L53.6787 15.0747L53.644 15.1165C53.6507 15.1 53.6598 15.0829 53.672 15.0702C53.6823 15.0582 53.6957 15.0487 53.7084 15.0392Z" fill="#1E5454"/>
<path d="M53.7074 15.0392L53.6784 15.0747L53.6719 15.0702C53.6819 15.0582 53.695 15.0487 53.7074 15.0392Z" fill="#1E5454"/>
<path d="M66.7566 3.28958C66.7512 3.29655 66.7464 3.30478 66.741 3.31112L66.018 4.47645C64.0374 7.67225 61.6872 10.5951 59.0208 13.1753L56.2848 16.1152C56.4402 15.9353 56.355 15.5617 56.0976 15.1354C55.9362 14.8713 55.7094 14.587 55.431 14.3184C55.1352 14.0322 54.8268 13.8061 54.5496 13.6591C54.1482 13.4508 53.811 13.4045 53.6616 13.5774L56.0028 10.2385C57.8802 7.34545 60.0654 4.69052 62.517 2.32502L64.1016 0.795516L64.1082 0.787282L64.1124 0.780316L64.1274 0.765116L64.1286 0.762582L64.1352 0.756249H64.137C64.2828 0.615649 64.5714 0.647949 64.9164 0.810082C65.2158 0.951949 65.559 1.19325 65.8878 1.51308C66.1254 1.74235 66.3258 1.98302 66.4794 2.21355C66.7824 2.67082 66.9024 3.08438 66.7566 3.28958Z" fill="#1E5454"/>
<path d="M56.5168 13.0816C56.455 13.0176 56.392 12.9536 56.3272 12.8909C56.2258 12.794 56.1232 12.699 56.0176 12.6104L57.1234 11.034L57.139 11.0093C58.9444 8.22769 61.0552 5.66269 63.4126 3.38649L64.4332 2.40039C64.4926 2.44916 64.5562 2.50489 64.624 2.57076C64.7056 2.65056 64.7806 2.73099 64.8466 2.81016L64.4992 3.37129C62.5942 6.44739 60.3256 9.26572 57.7588 11.7503L57.7288 11.7794L56.5168 13.0816Z" fill="#1E5454"/>
<path d="M54.2906 22.0382C54.2906 22.0382 47.0444 29.7338 44.5394 31.7364C42.041 33.739 36.3896 35.2837 36.3896 35.2837C36.3896 35.2837 36.3932 35.2805 36.3998 35.2767C36.4028 35.2697 36.413 35.2628 36.4232 35.2508C36.4346 35.24 36.4478 35.2261 36.4646 35.2083C37.4864 34.2096 42.707 23.9971 43.3766 23.1307C43.3832 23.1237 47.1722 17.532 47.1722 17.532L50.2706 19.4921L50.3606 19.5498L51.161 20.0565L52.1198 20.6651L54.2558 22.016L54.2906 22.0382Z" fill="#1E5454"/>
<path d="M53.9558 14.8264C53.9558 14.8264 53.9661 14.8226 53.9843 14.8195C53.9594 14.8264 53.9418 14.8442 53.9248 14.8632C53.9455 14.8372 53.9558 14.8264 53.9558 14.8264Z" fill="#1E5454"/>
<path d="M53.9541 14.8277C54.0555 14.7213 54.0729 14.708 54.1617 14.6136C54.2829 14.4863 54.5721 14.5459 54.8367 14.7745C55.1013 15.0012 55.2279 15.2995 55.1193 15.4395C55.0119 15.5795 54.8655 15.7036 54.8655 15.7036L53.9541 14.8277Z" fill="#1E5454"/>
<path d="M54.9192 15.5471C54.9265 15.6016 54.9125 15.6535 54.8846 15.689C54.8809 15.6928 54.8773 15.6998 54.8706 15.6998C54.8773 15.6858 54.9089 15.6314 54.9192 15.5471Z" fill="#1E5454"/>
<path d="M54.9186 15.5471C54.9084 15.6314 54.8772 15.6858 54.8706 15.6998C54.8676 15.7118 54.8592 15.715 54.849 15.7219C54.7428 15.8347 54.1152 16.5168 53.6418 17.3027C53.1246 18.1666 52.1748 19.9868 52.1748 19.9868L52.1202 20.6651L52.0896 21.0356L50.892 20.3814L50.088 19.9393L49.7598 19.7607L50.253 19.5872L50.361 19.5498L51.3126 19.2154C51.3126 19.2154 52.545 16.5497 53.1516 15.784C53.6352 15.1874 53.8524 14.9385 53.925 14.8631C53.9418 14.8441 53.9592 14.8264 53.9838 14.8194C53.9904 14.8125 54.0006 14.8087 54.0102 14.8087C54.0318 14.8049 54.0522 14.7966 54.0798 14.7928H54.0936C54.1116 14.7928 54.1314 14.7928 54.153 14.7966C54.2838 14.8156 54.4488 14.8916 54.6018 15.0227C54.7944 15.1906 54.912 15.3945 54.9186 15.5471Z" fill="#1E5454"/>
<path d="M48.983 22.7183C48.98 22.7221 48.9764 22.7291 48.9698 22.7367C48.3002 23.6038 37.4864 34.2096 36.4646 35.2083C36.4478 35.2261 36.4346 35.24 36.4232 35.2508C36.413 35.2628 36.4028 35.2697 36.3998 35.2767C36.3932 35.2805 36.3896 35.2837 36.3896 35.2837C36.3896 35.2837 36.692 31.0087 38.4182 27.5475C40.1438 24.0883 47.1722 17.532 47.1722 17.532C47.1722 17.532 47.948 21.5372 48.983 22.7183Z" fill="#1E5454"/>
<path d="M54.2906 22.0382C54.2906 22.0382 47.0444 29.7338 44.5394 31.7364C42.041 33.739 36.3896 35.2837 36.3896 35.2837C36.3896 35.2837 36.3932 35.2805 36.3998 35.2767C36.4028 35.2698 36.413 35.2628 36.4232 35.2508C36.4346 35.24 36.4478 35.2261 36.4646 35.2083C37.4864 34.2096 48.3002 23.6038 48.9698 22.7367C50.4074 23.1756 52.7792 22.5391 54.2558 22.016L54.2906 22.0382Z" fill="#1E5454"/>
<path d="M54.291 15.0265C54.291 15.0265 53.7276 15.5269 53.2974 16.0741C52.866 16.6194 51.8754 19.033 51.7026 19.3541C51.6582 19.4415 51.444 19.7062 51.1614 20.0565C51.078 20.1584 50.9886 20.2674 50.892 20.3814C50.1186 21.3162 49.0698 22.5366 49.0698 22.5366C49.0698 22.5366 49.2876 21.3567 49.5432 20.8108C49.7082 20.4637 49.9434 20.1369 50.088 19.9393C50.1744 19.8272 50.2326 19.7607 50.2326 19.7607C50.2326 19.7607 50.2398 19.6993 50.253 19.5872C50.2608 19.5574 50.2644 19.5251 50.271 19.4922L50.361 19.5498L51.3126 19.2154C51.3126 19.2154 52.545 16.5497 53.1516 15.784C53.6352 15.1874 53.8524 14.9385 53.925 14.8631C53.9418 14.8441 53.9592 14.8264 53.9838 14.8194C53.9904 14.8125 54.0006 14.8087 54.0102 14.8087C54.0318 14.8049 54.0522 14.7966 54.0798 14.7928H54.0936C54.1116 14.7928 54.1314 14.7928 54.153 14.7966C54.2526 14.9246 54.291 15.0265 54.291 15.0265Z" fill="#1E5454"/>
<path d="M48.9702 22.7367C48.9702 22.7367 51.0114 21.9007 51.4428 21.5821C51.873 21.2635 52.1202 20.665 52.1202 20.665L54.291 22.0381C54.291 22.0381 52.3914 22.6752 51.2262 22.857C50.0622 23.0394 48.9702 22.7367 48.9702 22.7367Z" fill="#1E5454"/>
<path d="M66.6869 42.1725V72.8619H0.338867V42.1725H27.0761V53.4762C27.0761 59.2225 28.6973 63.8819 33.9923 63.8819H34.1855C39.4811 63.8819 40.4339 59.2225 40.4339 53.4762V42.1725H66.6869Z" fill="#1E5454"/>
<path d="M29.8871 27.7381C29.8871 27.7381 30.3803 27.1504 29.9141 26.0706C29.4389 24.9933 26.2541 23.928 26.2541 23.928L19.8761 19.3325L16.4201 13.7326C16.4201 13.7326 22.4405 15.8536 25.3685 15.5211C25.9661 15.4489 26.3909 15.0594 26.6891 14.6085C27.1589 13.8719 27.3083 12.9834 27.3083 12.9834C27.3083 12.9834 23.3993 12.3538 22.1111 11.8149C21.1601 11.4235 19.2917 10.0897 17.8397 9.00287C16.5143 8.00854 14.8973 7.55761 13.2845 7.71594L9.05387 8.15674L0.338867 1.01147V12.2278L2.50427 14.3957L9.01067 25.3625L14.7257 32.8187L19.4837 35.5585C19.4837 35.5585 20.0645 35.5408 19.8983 34.2374L19.8953 34.2349C19.8869 34.1443 19.8827 34.0639 19.8617 33.9568C19.5665 32.364 16.5479 30.8953 16.5479 30.8953L14.4587 26.4898L20.1449 32.9923L24.2975 35.7707C24.2975 35.7707 25.2539 34.5534 24.5945 33.7548C23.9363 32.9555 21.6107 31.2025 21.6107 31.2025L17.1005 25.5246L23.2295 29.8712L28.5953 32.6021C28.5953 32.6021 29.2121 31.4653 28.6109 30.3981C28.2491 29.7705 24.3665 27.9408 24.3665 27.9408L18.6905 22.7304L24.3659 25.7121L29.8871 27.7381Z" fill="#1E5454"/>
</svg>
